#!OML:ASF X:\für Bonn\!DataBase\2005_08_10_Bjorn_Final\c3d\bjorn.ASF
:FULLY-SPECIFIED
:DEGREES
82
root 1.07152 8.57027 3.973 -187.154 -0.235749 -179.022
lowerback 31.5391 1.68476 5.4467
upperback 13.196 -0.406554 -1.4607
thorax -2.11515 -1.59062 -4.57186
lowerneck -24.5556 -3.25334 0.149463
upperneck 0.852715 -5.47904 2.86927
head 4.10374 -2.88653 0.304504
rclavicle 5.36719e-015 -1.78906e-015
rhumerus 80.3056 -6.12675 -62.5618
rradius 18.787
rwrist 26.5283
rhand -14.6738 13.6043
rfingers 7.12502
rthumb 11.4794 -16.0614
lclavicle 5.36719e-015 -1.78906e-015
lhumerus 84.1644 -5.67853 50.5595
lradius 15.1277
lwrist -24.0807
lhand -30.9898 -11.5415
lfingers 7.12502
lthumb -4.2733 18.3954
rfemur -49.8188 -79.2612 -27.2606
rtibia 149.511
rfoot -61.7838 46.7603
rtoes -38.0918
lfemur -77.7879 51.4918 -10.3963
ltibia 151.862
lfoot -38.7422 -29.1907
ltoes -27.1885
83
root 1.06455 8.55831 3.97583 -187.275 -0.187825 -178.88
lowerback 31.7381 1.62961 5.74687
upperback 13.2561 -0.42562 -1.42448
thorax -2.12041 -1.60575 -4.69966
lowerneck -24.4945 -3.19552 0.261657
upperneck 0.67999 -5.43809 2.78125
head 4.03437 -2.8815 0.266578
rclavicle 2.5842e-015 -1.59028e-015
rhumerus 80.2193 -6.07101 -62.854
rradius 18.9196
rwrist 27.1347
rhand -14.4747 13.4953
rfingers 7.12502
rthumb 11.6714 -16.1596
lclavicle 2.5842e-015 -1.59028e-015
lhumerus 84.1706 -5.6336 50.1252
lradius 14.9658
lwrist -23.4388
lhand -31.1621 -11.5773
lfingers 7.12502
lthumb -4.43963 18.3562
rfemur -54.9117 -77.6527 -21.9168
rtibia 149.56
rfoot -60.7834 46.0457
rtoes -38.6972
lfemur -77.7176 50.987 -10.2011
ltibia 151.979
lfoot -38.8607 -28.7122
ltoes -27.7598
84
root 1.05756 8.56021 3.97926 -187.318 -0.157506 -178.755
lowerback 31.8818 1.57507 5.97752
upperback 13.2881 -0.447574 -1.37246
thorax -2.13766 -1.61998 -4.768
lowerneck -24.5039 -3.09599 0.479753
upperneck 0.578596 -5.36188 2.55886
head 3.99025 -2.86401 0.171518
rclavicle 7.15625e-015 -1.25234e-014
rhumerus 80.1126 -5.97369 -62.9
rradius 19.0317
rwrist 27.5401
rhand -14.2657 13.3275
rfingers 7.12502
rthumb 11.8729 -16.3158
lclavicle 7.15625e-015 -1.25234e-014
lhumerus 84.0453 -5.6115 49.918
lradius 14.8532
lwrist -23.2025
lhand -31.3835 -11.6436
lfingers 7.12502
lthumb -4.65345 18.2853
rfemur -59.0136 -76.0443 -17.4662
rtibia 149.515
rfoot -59.8793 45.1964
rtoes -39.3598
lfemur -77.7259 50.481 -10.1398
ltibia 151.986
lfoot -39.0173 -28.194
ltoes -28.5548
85
root 1.05028 8.57536 3.98273 -187.31 -0.13637 -178.704
lowerback 31.9786 1.53636 6.13822
upperback 13.3063 -0.461739 -1.34877
thorax -2.15265 -1.62795 -4.82999
lowerneck -24.5835 -2.99547 0.722315
upperneck 0.527188 -5.29645 2.37206
head 3.97272 -2.84772 0.0809125
rclavicle 2.46493e-014 -2.34566e-014
rhumerus 79.9308 -5.88372 -62.6196
rradius 19.13
rwrist 27.5827
rhand -14.004 13.1485
rfingers 7.12502
rthumb 12.1252 -16.4801
lclavicle 2.46493e-014 -2.34566e-014
lhumerus 83.8115 -5.64286 50.1434
lradius 14.8268
lwrist -23.666
lhand -31.4921 -11.8106
lfingers 7.12502
lthumb -4.75828 18.1159
rfemur -62.0025 -74.3622 -14.1614
rtibia 149.382
rfoot -59.0008 44.5502
rtoes -39.8211
lfemur -77.715 49.9862 -10.2487
ltibia 151.873
lfoot -39.1641 -27.703
ltoes -29.2925
86
root 1.0417 8.60509 3.98751 -187.227 -0.126518 -178.671
lowerback 31.9868 1.49766 6.27946
upperback 13.3027 -0.467558 -1.33015
thorax -2.1547 -1.62513 -4.88913
lowerneck -24.6688 -2.89159 0.987999
upperneck 0.487154 -5.23089 2.15632
head 3.95844 -2.83253 -0.0226256
rclavicle -1.21259e-014 -3.57812e-015
rhumerus 79.6194 -5.77129 -61.6125
rradius 19.2403
rwrist 26.7927
rhand -13.8016 12.8417
rfingers 7.12502
rthumb 12.3204 -16.7753
lclavicle -1.21259e-014 -3.57812e-015
lhumerus 83.5441 -5.68967 50.6206
lradius 14.8086
lwrist -24.6564
lhand -31.5495 -11.9129
lfingers 7.12502
lthumb -4.8137 18.0124
rfemur -64.6287 -72.706 -11.1618
rtibia 149.167
rfoot -58.1397 43.8004
rtoes -40.2849
lfemur -77.7622 49.4979 -10.5063
ltibia 151.65
lfoot -39.3336 -27.1568
ltoes -30.1654
87
root 1.03368 8.65312 3.99239 -187.104 -0.0954121 -178.641
lowerback 31.948 1.46925 6.38751
upperback 13.2715 -0.457001 -1.3204
thorax -2.16834 -1.61033 -4.94393
lowerneck -24.7119 -2.79025 1.27851
upperneck 0.46176 -5.17196 1.95065
head 3.94312 -2.81792 -0.126956
rclavicle 1.16289e-014 -1.09332e-014
rhumerus 79.2126 -5.58155 -60.4273
rradius 19.3301
rwrist 25.6564
rhand -13.6977 12.5484
rfingers 7.12502
rthumb 12.4206 -17.0626
lclavicle 1.16289e-014 -1.09332e-014
lhumerus 83.1478 -5.76163 51.4286
lradius 14.9142
lwrist -26.2106
lhand -31.4433 -11.9541
lfingers 7.12502
lthumb -4.71124 17.9736
rfemur -66.8437 -71.0248 -8.44419
rtibia 148.811
rfoot -57.1995 43.1777
rtoes -40.6204
lfemur -77.7514 49.035 -10.7777
ltibia 151.283
lfoot -39.4397 -26.724
ltoes -30.9036
88
root 1.02409 8.71944 3.9971 -186.951 -0.0979273 -178.645
lowerback 31.8512 1.42962 6.47201
upperback 13.2353 -0.462758 -1.31948
thorax -2.16585 -1.60029 -4.98996
lowerneck -24.7863 -2.68157 1.57599
upperneck 0.480217 -5.10277 1.72265
head 3.9455 -2.79749 -0.239457
rclavicle -1.86858e-014 -1.33186e-014
rhumerus 78.7365 -5.31525 -59.3426
rradius 19.4232
rwrist 24.3957
rhand -13.6403 12.3471
rfingers 7.12502
rthumb 12.4759 -17.2605
lclavicle -1.86858e-014 -1.33186e-014
lhumerus 82.7874 -5.82039 52.3216
lradius 14.9566
lwrist -28.0054
lhand -31.2363 -11.93
lfingers 7.12502
lthumb -4.51132 18.002
rfemur -68.6558 -69.357 -6.09115
rtibia 148.335
rfoot -56.0868 42.7768
rtoes -40.6521
lfemur -77.6987 48.5475 -11.1291
ltibia 150.781
lfoot -39.407 -26.4847
ltoes -31.3096
89
root 1.01473 8.80443 4.00341 -186.75 -0.0909139 -178.667
lowerback 31.7092 1.40477 6.51512
upperback 13.1675 -0.446264 -1.31756
thorax -2.17974 -1.57561 -5.01755
lowerneck -24.8368 -2.60703 1.79079
upperneck 0.553092 -5.05328 1.57921
head 3.96657 -2.77723 -0.314678
rclavicle 1.33186e-014 -7.7526e-015
rhumerus 78.1625 -4.98648 -58.1878
rradius 19.5234
rwrist 23.0841
rhand -13.7054 12.2101
rfingers 7.12502
rthumb 12.4131 -17.4013
lclavicle 1.33186e-014 -7.7526e-015
lhumerus 82.565 -5.8997 52.6874
lradius 14.8123
lwrist -29.3333
lhand -31.0762 -11.9857
lfingers 7.12502
lthumb -4.35674 17.9495
rfemur -70.2069 -67.6792 -3.89469
rtibia 147.72
rfoot -54.9887 42.34
rtoes -40.664
lfemur -77.6098 48.0744 -11.4933
ltibia 150.136
lfoot -39.1689 -26.6644
ltoes -31.1463
90
root 1.00536 8.90382 4.00949 -186.51 -0.09835 -178.709
lowerback 31.5082 1.3843 6.50914
upperback 13.1021 -0.436663 -1.3044
thorax -2.16834 -1.55388 -5.00212
lowerneck -24.9801 -2.52396 2.00666
upperneck 0.710519 -4.99072 1.39039
head 4.02609 -2.75016 -0.405682
rclavicle -3.08116e-015 1.23246e-014
rhumerus 77.5823 -4.61065 -56.9445
rradius 19.6569
rwrist 21.661
rhand -13.7847 12.0877
rfingers 7.12502
rthumb 12.3367 -17.5283
lclavicle -3.08116e-015 1.23246e-014
lhumerus 82.5828 -5.93484 52.3431
lradius 14.3939
lwrist -29.9169
lhand -30.9339 -12.0325
lfingers 7.12502
lthumb -4.21933 17.9054
rfemur -71.4824 -66.0005 -1.94478
rtibia 147.001
rfoot -53.6999 42.2009
rtoes -40.3388
lfemur -77.4678 47.5908 -11.8712
ltibia 149.37
lfoot -38.7472 -27.1702
ltoes -30.4242
